# Tiled2Unity generated file. Do not modify by hand.
# Wavefront file for 'MapD_mesh_0006.obj'

# Vertices (Count = 24)
v -21 -9 0
v -22 -9 0
v -22 -8 0
v -21 -8 0
v -22 -9 0
v -23 -9 0
v -23 -8 0
v -22 -8 0
v -21 -10 0
v -22 -10 0
v -22 -9 0
v -21 -9 0
v -22 -10 0
v -23 -10 0
v -23 -9 0
v -22 -9 0
v -21 -12 0
v -22 -12 0
v -22 -11 0
v -21 -11 0
v -22 -12 0
v -23 -12 0
v -23 -11 0
v -22 -11 0

# Texture cooridinates (Count = 15)
vt 0.125 0.8382353
vt 0.15625 0.8382353
vt 0.15625 0.8529412
vt 0.125 0.8529412
vt 0.1875 0.8382353
vt 0.1875 0.8529412
vt 0.125 0.8235294
vt 0.15625 0.8235294
vt 0.1875 0.8235294
vt 0 0.8382353
vt 0.03125 0.8382353
vt 0.03125 0.8529412
vt 0 0.8529412
vt 0.0625 0.8382353
vt 0.0625 0.8529412

# Normal
vn 0 0 -1

# Mesh description
g MapD_mesh_0006

# Faces
f 1/1/1 2/2/1 3/3/1 4/4/1
f 5/2/1 6/5/1 7/6/1 8/3/1
f 9/7/1 10/8/1 11/2/1 12/1/1
f 13/8/1 14/9/1 15/5/1 16/2/1
f 17/10/1 18/11/1 19/12/1 20/13/1
f 21/11/1 22/14/1 23/15/1 24/12/1

