# Tiled2Unity generated file. Do not modify by hand.
# Wavefront file for 'MapA_mesh_0003.obj'

# Vertices (Count = 424)
v -7 -3 0
v -8 -3 0
v -8 -2 0
v -7 -2 0
v -8 -3 0
v -9 -3 0
v -9 -2 0
v -8 -2 0
v -9 -3 0
v -10 -3 0
v -10 -2 0
v -9 -2 0
v -10 -3 0
v -11 -3 0
v -11 -2 0
v -10 -2 0
v -20 -3 0
v -21 -3 0
v -21 -2 0
v -20 -2 0
v -21 -3 0
v -22 -3 0
v -22 -2 0
v -21 -2 0
v -22 -3 0
v -23 -3 0
v -23 -2 0
v -22 -2 0
v -23 -3 0
v -24 -3 0
v -24 -2 0
v -23 -2 0
v -7 -4 0
v -8 -4 0
v -8 -3 0
v -7 -3 0
v -8 -4 0
v -9 -4 0
v -9 -3 0
v -8 -3 0
v -9 -4 0
v -10 -4 0
v -10 -3 0
v -9 -3 0
v -10 -4 0
v -11 -4 0
v -11 -3 0
v -10 -3 0
v -20 -4 0
v -21 -4 0
v -21 -3 0
v -20 -3 0
v -21 -4 0
v -22 -4 0
v -22 -3 0
v -21 -3 0
v -22 -4 0
v -23 -4 0
v -23 -3 0
v -22 -3 0
v -23 -4 0
v -24 -4 0
v -24 -3 0
v -23 -3 0
v -7 -5 0
v -8 -5 0
v -8 -4 0
v -7 -4 0
v -8 -5 0
v -9 -5 0
v -9 -4 0
v -8 -4 0
v -9 -5 0
v -10 -5 0
v -10 -4 0
v -9 -4 0
v -10 -5 0
v -11 -5 0
v -11 -4 0
v -10 -4 0
v -20 -5 0
v -21 -5 0
v -21 -4 0
v -20 -4 0
v -21 -5 0
v -22 -5 0
v -22 -4 0
v -21 -4 0
v -22 -5 0
v -23 -5 0
v -23 -4 0
v -22 -4 0
v -23 -5 0
v -24 -5 0
v -24 -4 0
v -23 -4 0
v -7 -6 0
v -8 -6 0
v -8 -5 0
v -7 -5 0
v -8 -6 0
v -9 -6 0
v -9 -5 0
v -8 -5 0
v -9 -6 0
v -10 -6 0
v -10 -5 0
v -9 -5 0
v -10 -6 0
v -11 -6 0
v -11 -5 0
v -10 -5 0
v -13 -6 0
v -14 -6 0
v -14 -5 0
v -13 -5 0
v -14 -6 0
v -15 -6 0
v -15 -5 0
v -14 -5 0
v -15 -6 0
v -16 -6 0
v -16 -5 0
v -15 -5 0
v -16 -6 0
v -17 -6 0
v -17 -5 0
v -16 -5 0
v -17 -6 0
v -18 -6 0
v -18 -5 0
v -17 -5 0
v -20 -6 0
v -21 -6 0
v -21 -5 0
v -20 -5 0
v -21 -6 0
v -22 -6 0
v -22 -5 0
v -21 -5 0
v -22 -6 0
v -23 -6 0
v -23 -5 0
v -22 -5 0
v -23 -6 0
v -24 -6 0
v -24 -5 0
v -23 -5 0
v -8 -7 0
v -9 -7 0
v -9 -6 0
v -8 -6 0
v -9 -7 0
v -10 -7 0
v -10 -6 0
v -9 -6 0
v -13 -7 0
v -14 -7 0
v -14 -6 0
v -13 -6 0
v -14 -7 0
v -15 -7 0
v -15 -6 0
v -14 -6 0
v -15 -7 0
v -16 -7 0
v -16 -6 0
v -15 -6 0
v -16 -7 0
v -17 -7 0
v -17 -6 0
v -16 -6 0
v -17 -7 0
v -18 -7 0
v -18 -6 0
v -17 -6 0
v -21 -7 0
v -22 -7 0
v -22 -6 0
v -21 -6 0
v -22 -7 0
v -23 -7 0
v -23 -6 0
v -22 -6 0
v -12 -8 0
v -13 -8 0
v -13 -7 0
v -12 -7 0
v -13 -8 0
v -14 -8 0
v -14 -7 0
v -13 -7 0
v -14 -8 0
v -15 -8 0
v -15 -7 0
v -14 -7 0
v -15 -8 0
v -16 -8 0
v -16 -7 0
v -15 -7 0
v -16 -8 0
v -17 -8 0
v -17 -7 0
v -16 -7 0
v -17 -8 0
v -18 -8 0
v -18 -7 0
v -17 -7 0
v -18 -8 0
v -19 -8 0
v -19 -7 0
v -18 -7 0
v -4 -9 0
v -5 -9 0
v -5 -8 0
v -4 -8 0
v -5 -9 0
v -6 -9 0
v -6 -8 0
v -5 -8 0
v -6 -9 0
v -7 -9 0
v -7 -8 0
v -6 -8 0
v -7 -9 0
v -8 -9 0
v -8 -8 0
v -7 -8 0
v -8 -9 0
v -9 -9 0
v -9 -8 0
v -8 -8 0
v -9 -9 0
v -10 -9 0
v -10 -8 0
v -9 -8 0
v -20 -9 0
v -21 -9 0
v -21 -8 0
v -20 -8 0
v -21 -9 0
v -22 -9 0
v -22 -8 0
v -21 -8 0
v -22 -9 0
v -23 -9 0
v -23 -8 0
v -22 -8 0
v -23 -9 0
v -24 -9 0
v -24 -8 0
v -23 -8 0
v -24 -9 0
v -25 -9 0
v -25 -8 0
v -24 -8 0
v -25 -9 0
v -26 -9 0
v -26 -8 0
v -25 -8 0
v -4 -10 0
v -5 -10 0
v -5 -9 0
v -4 -9 0
v -5 -10 0
v -6 -10 0
v -6 -9 0
v -5 -9 0
v -6 -10 0
v -7 -10 0
v -7 -9 0
v -6 -9 0
v -7 -10 0
v -8 -10 0
v -8 -9 0
v -7 -9 0
v -8 -10 0
v -9 -10 0
v -9 -9 0
v -8 -9 0
v -9 -10 0
v -10 -10 0
v -10 -9 0
v -9 -9 0
v -20 -10 0
v -21 -10 0
v -21 -9 0
v -20 -9 0
v -21 -10 0
v -22 -10 0
v -22 -9 0
v -21 -9 0
v -22 -10 0
v -23 -10 0
v -23 -9 0
v -22 -9 0
v -23 -10 0
v -24 -10 0
v -24 -9 0
v -23 -9 0
v -24 -10 0
v -25 -10 0
v -25 -9 0
v -24 -9 0
v -25 -10 0
v -26 -10 0
v -26 -9 0
v -25 -9 0
v -4 -11 0
v -5 -11 0
v -5 -10 0
v -4 -10 0
v -5 -11 0
v -6 -11 0
v -6 -10 0
v -5 -10 0
v -6 -11 0
v -7 -11 0
v -7 -10 0
v -6 -10 0
v -7 -11 0
v -8 -11 0
v -8 -10 0
v -7 -10 0
v -8 -11 0
v -9 -11 0
v -9 -10 0
v -8 -10 0
v -9 -11 0
v -10 -11 0
v -10 -10 0
v -9 -10 0
v -20 -11 0
v -21 -11 0
v -21 -10 0
v -20 -10 0
v -21 -11 0
v -22 -11 0
v -22 -10 0
v -21 -10 0
v -22 -11 0
v -23 -11 0
v -23 -10 0
v -22 -10 0
v -23 -11 0
v -24 -11 0
v -24 -10 0
v -23 -10 0
v -24 -11 0
v -25 -11 0
v -25 -10 0
v -24 -10 0
v -25 -11 0
v -26 -11 0
v -26 -10 0
v -25 -10 0
v -4 -12 0
v -5 -12 0
v -5 -11 0
v -4 -11 0
v -5 -12 0
v -6 -12 0
v -6 -11 0
v -5 -11 0
v -6 -12 0
v -7 -12 0
v -7 -11 0
v -6 -11 0
v -7 -12 0
v -8 -12 0
v -8 -11 0
v -7 -11 0
v -8 -12 0
v -9 -12 0
v -9 -11 0
v -8 -11 0
v -9 -12 0
v -10 -12 0
v -10 -11 0
v -9 -11 0
v -20 -12 0
v -21 -12 0
v -21 -11 0
v -20 -11 0
v -21 -12 0
v -22 -12 0
v -22 -11 0
v -21 -11 0
v -22 -12 0
v -23 -12 0
v -23 -11 0
v -22 -11 0
v -23 -12 0
v -24 -12 0
v -24 -11 0
v -23 -11 0
v -24 -12 0
v -25 -12 0
v -25 -11 0
v -24 -11 0
v -25 -12 0
v -26 -12 0
v -26 -11 0
v -25 -11 0
v -6 -13 0
v -7 -13 0
v -7 -12 0
v -6 -12 0
v -7 -13 0
v -8 -13 0
v -8 -12 0
v -7 -12 0
v -11 -13 0
v -12 -13 0
v -12 -12 0
v -11 -12 0
v -22 -13 0
v -23 -13 0
v -23 -12 0
v -22 -12 0
v -23 -13 0
v -24 -13 0
v -24 -12 0
v -23 -12 0

# Texture cooridinates (Count = 98)
vt 0.24 0.9873418
vt 0.28 0.9873418
vt 0.28 1
vt 0.24 1
vt 0.32 0.9873418
vt 0.32 1
vt 0.36 0.9873418
vt 0.36 1
vt 0.4 0.9873418
vt 0.4 1
vt 0.24 0.9746835
vt 0.28 0.9746835
vt 0.32 0.9746835
vt 0.36 0.9746835
vt 0.4 0.9746835
vt 0.24 0.9620253
vt 0.28 0.9620253
vt 0.32 0.9620253
vt 0.36 0.9620253
vt 0.4 0.9620253
vt 0.24 0.9493671
vt 0.28 0.9493671
vt 0.32 0.9493671
vt 0.36 0.9493671
vt 0.4 0.9493671
vt 0.36 0.5189873
vt 0.4 0.5189873
vt 0.4 0.5316455
vt 0.36 0.5316455
vt 0.44 0.5189873
vt 0.44 0.5316455
vt 0.48 0.5189873
vt 0.48 0.5316455
vt 0.52 0.5189873
vt 0.52 0.5316455
vt 0.56 0.5189873
vt 0.56 0.5316455
vt 0.28 0.9367089
vt 0.32 0.9367089
vt 0.36 0.9367089
vt 0.36 0.5063291
vt 0.4 0.5063291
vt 0.44 0.5063291
vt 0.48 0.5063291
vt 0.52 0.5063291
vt 0.56 0.5063291
vt 0.32 0.4936709
vt 0.36 0.4936709
vt 0.32 0.5063291
vt 0.4 0.4936709
vt 0.44 0.4936709
vt 0.48 0.4936709
vt 0.52 0.4936709
vt 0.56 0.4936709
vt 0.6 0.4936709
vt 0.6 0.5063291
vt 0.64 0.9873418
vt 0.68 0.9873418
vt 0.68 1
vt 0.64 1
vt 0.72 0.9873418
vt 0.72 1
vt 0.76 0.9873418
vt 0.76 1
vt 0.8 0.9873418
vt 0.8 1
vt 0.84 0.9873418
vt 0.84 1
vt 0.88 0.9873418
vt 0.88 1
vt 0.64 0.9746835
vt 0.68 0.9746835
vt 0.72 0.9746835
vt 0.76 0.9746835
vt 0.8 0.9746835
vt 0.84 0.9746835
vt 0.88 0.9746835
vt 0.64 0.9620253
vt 0.68 0.9620253
vt 0.72 0.9620253
vt 0.76 0.9620253
vt 0.8 0.9620253
vt 0.84 0.9620253
vt 0.88 0.9620253
vt 0.64 0.9493671
vt 0.68 0.9493671
vt 0.72 0.9493671
vt 0.76 0.9493671
vt 0.8 0.9493671
vt 0.84 0.9493671
vt 0.88 0.9493671
vt 0.72 0.9367089
vt 0.76 0.9367089
vt 0.8 0.9367089
vt 0.92 0.9367089
vt 0.96 0.9367089
vt 0.96 0.9493671
vt 0.92 0.9493671

# Normal
vn 0 0 -1

# Mesh description
g MapA_mesh_0003

# Faces
f 1/1/1 2/2/1 3/3/1 4/4/1
f 5/2/1 6/5/1 7/6/1 8/3/1
f 9/5/1 10/7/1 11/8/1 12/6/1
f 13/7/1 14/9/1 15/10/1 16/8/1
f 17/1/1 18/2/1 19/3/1 20/4/1
f 21/2/1 22/5/1 23/6/1 24/3/1
f 25/5/1 26/7/1 27/8/1 28/6/1
f 29/7/1 30/9/1 31/10/1 32/8/1
f 33/11/1 34/12/1 35/2/1 36/1/1
f 37/12/1 38/13/1 39/5/1 40/2/1
f 41/13/1 42/14/1 43/7/1 44/5/1
f 45/14/1 46/15/1 47/9/1 48/7/1
f 49/11/1 50/12/1 51/2/1 52/1/1
f 53/12/1 54/13/1 55/5/1 56/2/1
f 57/13/1 58/14/1 59/7/1 60/5/1
f 61/14/1 62/15/1 63/9/1 64/7/1
f 65/16/1 66/17/1 67/12/1 68/11/1
f 69/17/1 70/18/1 71/13/1 72/12/1
f 73/18/1 74/19/1 75/14/1 76/13/1
f 77/19/1 78/20/1 79/15/1 80/14/1
f 81/16/1 82/17/1 83/12/1 84/11/1
f 85/17/1 86/18/1 87/13/1 88/12/1
f 89/18/1 90/19/1 91/14/1 92/13/1
f 93/19/1 94/20/1 95/15/1 96/14/1
f 97/21/1 98/22/1 99/17/1 100/16/1
f 101/22/1 102/23/1 103/18/1 104/17/1
f 105/23/1 106/24/1 107/19/1 108/18/1
f 109/24/1 110/25/1 111/20/1 112/19/1
f 113/26/1 114/27/1 115/28/1 116/29/1
f 117/27/1 118/30/1 119/31/1 120/28/1
f 121/30/1 122/32/1 123/33/1 124/31/1
f 125/32/1 126/34/1 127/35/1 128/33/1
f 129/34/1 130/36/1 131/37/1 132/35/1
f 133/21/1 134/22/1 135/17/1 136/16/1
f 137/22/1 138/23/1 139/18/1 140/17/1
f 141/23/1 142/24/1 143/19/1 144/18/1
f 145/24/1 146/25/1 147/20/1 148/19/1
f 149/38/1 150/39/1 151/23/1 152/22/1
f 153/39/1 154/40/1 155/24/1 156/23/1
f 157/41/1 158/42/1 159/27/1 160/26/1
f 161/42/1 162/43/1 163/30/1 164/27/1
f 165/43/1 166/44/1 167/32/1 168/30/1
f 169/44/1 170/45/1 171/34/1 172/32/1
f 173/45/1 174/46/1 175/36/1 176/34/1
f 177/38/1 178/39/1 179/23/1 180/22/1
f 181/39/1 182/40/1 183/24/1 184/23/1
f 185/47/1 186/48/1 187/41/1 188/49/1
f 189/48/1 190/50/1 191/42/1 192/41/1
f 193/50/1 194/51/1 195/43/1 196/42/1
f 197/51/1 198/52/1 199/44/1 200/43/1
f 201/52/1 202/53/1 203/45/1 204/44/1
f 205/53/1 206/54/1 207/46/1 208/45/1
f 209/54/1 210/55/1 211/56/1 212/46/1
f 213/57/1 214/58/1 215/59/1 216/60/1
f 217/58/1 218/61/1 219/62/1 220/59/1
f 221/61/1 222/63/1 223/64/1 224/62/1
f 225/63/1 226/65/1 227/66/1 228/64/1
f 229/65/1 230/67/1 231/68/1 232/66/1
f 233/67/1 234/69/1 235/70/1 236/68/1
f 237/57/1 238/58/1 239/59/1 240/60/1
f 241/58/1 242/61/1 243/62/1 244/59/1
f 245/61/1 246/63/1 247/64/1 248/62/1
f 249/63/1 250/65/1 251/66/1 252/64/1
f 253/65/1 254/67/1 255/68/1 256/66/1
f 257/67/1 258/69/1 259/70/1 260/68/1
f 261/71/1 262/72/1 263/58/1 264/57/1
f 265/72/1 266/73/1 267/61/1 268/58/1
f 269/73/1 270/74/1 271/63/1 272/61/1
f 273/74/1 274/75/1 275/65/1 276/63/1
f 277/75/1 278/76/1 279/67/1 280/65/1
f 281/76/1 282/77/1 283/69/1 284/67/1
f 285/71/1 286/72/1 287/58/1 288/57/1
f 289/72/1 290/73/1 291/61/1 292/58/1
f 293/73/1 294/74/1 295/63/1 296/61/1
f 297/74/1 298/75/1 299/65/1 300/63/1
f 301/75/1 302/76/1 303/67/1 304/65/1
f 305/76/1 306/77/1 307/69/1 308/67/1
f 309/78/1 310/79/1 311/72/1 312/71/1
f 313/79/1 314/80/1 315/73/1 316/72/1
f 317/80/1 318/81/1 319/74/1 320/73/1
f 321/81/1 322/82/1 323/75/1 324/74/1
f 325/82/1 326/83/1 327/76/1 328/75/1
f 329/83/1 330/84/1 331/77/1 332/76/1
f 333/78/1 334/79/1 335/72/1 336/71/1
f 337/79/1 338/80/1 339/73/1 340/72/1
f 341/80/1 342/81/1 343/74/1 344/73/1
f 345/81/1 346/82/1 347/75/1 348/74/1
f 349/82/1 350/83/1 351/76/1 352/75/1
f 353/83/1 354/84/1 355/77/1 356/76/1
f 357/85/1 358/86/1 359/79/1 360/78/1
f 361/86/1 362/87/1 363/80/1 364/79/1
f 365/87/1 366/88/1 367/81/1 368/80/1
f 369/88/1 370/89/1 371/82/1 372/81/1
f 373/89/1 374/90/1 375/83/1 376/82/1
f 377/90/1 378/91/1 379/84/1 380/83/1
f 381/85/1 382/86/1 383/79/1 384/78/1
f 385/86/1 386/87/1 387/80/1 388/79/1
f 389/87/1 390/88/1 391/81/1 392/80/1
f 393/88/1 394/89/1 395/82/1 396/81/1
f 397/89/1 398/90/1 399/83/1 400/82/1
f 401/90/1 402/91/1 403/84/1 404/83/1
f 405/92/1 406/93/1 407/88/1 408/87/1
f 409/93/1 410/94/1 411/89/1 412/88/1
f 413/95/1 414/96/1 415/97/1 416/98/1
f 417/92/1 418/93/1 419/88/1 420/87/1
f 421/93/1 422/94/1 423/89/1 424/88/1

